<mxfile host="Electron" agent="Mozilla/5.0 (Macintosh; Intel Mac OS X 10_15_7) AppleWebKit/537.36 (KHTML, like Gecko) draw.io/28.1.2 Chrome/138.0.7204.243 Electron/37.4.0 Safari/537.36" version="28.1.2">
  <diagram name="第 1 页" id="ovfndVB2vZ5Cla2u-vjQ">
    <mxGraphModel dx="2329" dy="1155" grid="1" gridSize="10" guides="1" tooltips="1" connect="1" arrows="1" fold="1" page="1" pageScale="1" pageWidth="827" pageHeight="1169" math="0" shadow="0">
      <root>
        <mxCell id="0" />
        <mxCell id="1" parent="0" />
        <mxCell id="XT8KvC8Mrg0eWG_kcXal-1" value="&lt;font style=&quot;font-size: 18px;&quot;&gt;WebSurfer&lt;/font&gt;&lt;div style=&quot;line-height: 140%;&quot;&gt;&lt;font style=&quot;font-size: 18px;&quot;&gt;&lt;font style=&quot;&quot;&gt;核心方法&lt;/font&gt;&lt;br&gt;&lt;/font&gt;&lt;div style=&quot;text-align: left;&quot;&gt;&lt;ul&gt;&lt;li&gt;&lt;span style=&quot;background-color: transparent; color: light-dark(rgb(0, 0, 0), rgb(255, 255, 255));&quot;&gt;&lt;font style=&quot;font-size: 14px;&quot;&gt;on_message_stream:接收用户或者其他agent的消息，驱动浏览器去进行一系列的操作，并将操作以流的形式进行输出（AsyncGenerator）&lt;/font&gt;&lt;/span&gt;&lt;/li&gt;&lt;li&gt;&lt;span style=&quot;background-color: transparent; color: light-dark(rgb(0, 0, 0), rgb(255, 255, 255));&quot;&gt;&lt;font style=&quot;font-size: 14px;&quot;&gt;get_llm_response:观察浏览器的状态，构造提示词，返回下一步要执行的动作（思考），以及上下文信息&lt;/font&gt;&lt;/span&gt;&lt;/li&gt;&lt;li&gt;&lt;font style=&quot;font-size: 14px;&quot;&gt;execute_tool:WebSurfer执行的核心，将LLM生成的工具调用指令翻译为调用浏览器的真实操作，返回操作文本的描述&lt;/font&gt;&lt;/li&gt;&lt;/ul&gt;&lt;/div&gt;&lt;/div&gt;" style="rounded=0;whiteSpace=wrap;html=1;" vertex="1" parent="1">
          <mxGeometry x="-20" y="1360" width="400" height="240" as="geometry" />
        </mxCell>
        <mxCell id="XT8KvC8Mrg0eWG_kcXal-2" value="&lt;font style=&quot;font-size: 18px;&quot;&gt;FileSurfer（专注于文件的浏览和操作）&lt;/font&gt;&lt;div&gt;&lt;font style=&quot;font-size: 18px;&quot;&gt;核心方法&lt;/font&gt;&lt;/div&gt;&lt;div&gt;&lt;ul&gt;&lt;li&gt;on_message_steam：接收用户的自然语言指令，&lt;font&gt;&lt;span style=&quot;white-space-collapse: preserve-breaks; caret-color: rgb(250, 250, 252); color: rgb(250, 250, 252); font-family: system-ui, ui-sans-serif, -apple-system, BlinkMacSystemFont, sans-serif, Inter, NotoSansHans; letter-spacing: 0.32px; text-align: start; background-color: rgb(43, 43, 49);&quot;&gt;将其翻译成具体的文件系统操作，并以&lt;/span&gt;&lt;span style=&quot;background-color: transparent; color: var(--tw-prose-bold); font-weight: var(--font-weight-medium); white-space-collapse: preserve-breaks; --tw-border-spacing-x: 0; --tw-border-spacing-y: 0; --tw-translate-x: 0; --tw-translate-y: 0; --tw-rotate: 0; --tw-skew-x: 0; --tw-skew-y: 0; --tw-scale-x: 1; --tw-scale-y: 1; --tw-pan-x: ; --tw-pan-y: ; --tw-pinch-zoom: ; --tw-scroll-snap-strictness: proximity; --tw-gradient-from-position: ; --tw-gradient-via-position: ; --tw-gradient-to-position: ; --tw-ordinal: ; --tw-slashed-zero: ; --tw-numeric-figure: ; --tw-numeric-spacing: ; --tw-numeric-fraction: ; --tw-ring-inset: ; --tw-ring-offset-width: 0px; --tw-ring-offset-color: #fff; --tw-ring-color: rgb(59 130 246 / .5); --tw-ring-offset-shadow: 0 0 #0000; --tw-ring-shadow: 0 0 #0000; --tw-shadow: 0 0 #0000; --tw-shadow-colored: 0 0 #0000; --tw-blur: ; --tw-brightness: ; --tw-contrast: ; --tw-grayscale: ; --tw-hue-rotate: ; --tw-invert: ; --tw-saturate: ; --tw-sepia: ; --tw-drop-shadow: ; --tw-backdrop-blur: ; --tw-backdrop-brightness: ; --tw-backdrop-contrast: ; --tw-backdrop-grayscale: ; --tw-backdrop-hue-rotate: ; --tw-backdrop-invert: ; --tw-backdrop-opacity: ; --tw-backdrop-saturate: ; --tw-backdrop-sepia: ; --tw-contain-size: ; --tw-contain-layout: ; --tw-contain-paint: ; --tw-contain-style: ; box-sizing: border-box; border-width: 0px; border-style: solid; border-color: rgb(227, 227, 227); margin: 12px 0px; line-height: 1.75; letter-spacing: 0.32px; font-family: system-ui, ui-sans-serif, -apple-system, BlinkMacSystemFont, sans-serif, Inter, NotoSansHans; text-align: start;&quot;&gt;流式方式（streaming）&lt;/span&gt;&lt;span style=&quot;white-space-collapse: preserve-breaks; caret-color: rgb(250, 250, 252); color: rgb(250, 250, 252); font-family: system-ui, ui-sans-serif, -apple-system, BlinkMacSystemFont, sans-serif, Inter, NotoSansHans; letter-spacing: 0.32px; text-align: start; background-color: rgb(43, 43, 49);&quot;&gt; 逐步返回操作过程和结果&lt;/span&gt;&lt;/font&gt;&lt;/li&gt;&lt;/ul&gt;&lt;/div&gt;" style="rounded=0;whiteSpace=wrap;html=1;" vertex="1" parent="1">
          <mxGeometry x="575" y="1420" width="430" height="140" as="geometry" />
        </mxCell>
        <mxCell id="XT8KvC8Mrg0eWG_kcXal-3" value="&lt;font style=&quot;font-size: 18px;&quot;&gt;Playwright_controller&lt;/font&gt;&lt;div style=&quot;text-align: left;&quot;&gt;&lt;ul&gt;&lt;li&gt;提供（封装）一系列的操作浏览器方法，供WebSurfer中进行调用，其中的一些动画来自animation_utils，其中对于获取浏览器界面文字等方法调用了webpage_text_utils&lt;/li&gt;&lt;li&gt;其他：bing_search，提供了信息获取的能力，支持实时网络搜索。url_status_manager，提供了安全的防护，确保仅允许访问可信的网站&lt;/li&gt;&lt;/ul&gt;&lt;/div&gt;" style="rounded=0;whiteSpace=wrap;html=1;" vertex="1" parent="1">
          <mxGeometry x="-10" y="1680" width="350" height="175" as="geometry" />
        </mxCell>
        <mxCell id="XT8KvC8Mrg0eWG_kcXal-5" value="teammanager&lt;div&gt;后端任务执行和生命周期的管理器&lt;/div&gt;&lt;div&gt;接收一个任务，根据配置创建一个Team，流式执行任务，实时返回执行的过程，任务结束后解散团队&lt;/div&gt;" style="rounded=0;whiteSpace=wrap;html=1;" vertex="1" parent="1">
          <mxGeometry x="400" y="360" width="400" height="230" as="geometry" />
        </mxCell>
        <mxCell id="XT8KvC8Mrg0eWG_kcXal-6" style="edgeStyle=orthogonalEdgeStyle;rounded=0;orthogonalLoop=1;jettySize=auto;html=1;entryX=0.462;entryY=1.005;entryDx=0;entryDy=0;entryPerimeter=0;" edge="1" parent="1" source="XT8KvC8Mrg0eWG_kcXal-3" target="XT8KvC8Mrg0eWG_kcXal-1">
          <mxGeometry relative="1" as="geometry" />
        </mxCell>
        <mxCell id="XT8KvC8Mrg0eWG_kcXal-7" value="connection" style="rounded=0;whiteSpace=wrap;html=1;" vertex="1" parent="1">
          <mxGeometry x="530" y="210" width="110" height="60" as="geometry" />
        </mxCell>
        <mxCell id="XT8KvC8Mrg0eWG_kcXal-10" value="&lt;font&gt;orchestrator&lt;br&gt;&lt;span style=&quot;--tw-border-spacing-x: 0; --tw-border-spacing-y: 0; --tw-translate-x: 0; --tw-translate-y: 0; --tw-rotate: 0; --tw-skew-x: 0; --tw-skew-y: 0; --tw-scale-x: 1; --tw-scale-y: 1; --tw-pan-x: ; --tw-pan-y: ; --tw-pinch-zoom: ; --tw-scroll-snap-strictness: proximity; --tw-gradient-from-position: ; --tw-gradient-via-position: ; --tw-gradient-to-position: ; --tw-ordinal: ; --tw-slashed-zero: ; --tw-numeric-figure: ; --tw-numeric-spacing: ; --tw-numeric-fraction: ; --tw-ring-inset: ; --tw-ring-offset-width: 0px; --tw-ring-offset-color: #fff; --tw-ring-color: rgb(59 130 246 / .5); --tw-ring-offset-shadow: 0 0 #0000; --tw-ring-shadow: 0 0 #0000; --tw-shadow: 0 0 #0000; --tw-shadow-colored: 0 0 #0000; --tw-blur: ; --tw-brightness: ; --tw-contrast: ; --tw-grayscale: ; --tw-hue-rotate: ; --tw-invert: ; --tw-saturate: ; --tw-sepia: ; --tw-drop-shadow: ; --tw-backdrop-blur: ; --tw-backdrop-brightness: ; --tw-backdrop-contrast: ; --tw-backdrop-grayscale: ; --tw-backdrop-hue-rotate: ; --tw-backdrop-invert: ; --tw-backdrop-opacity: ; --tw-backdrop-saturate: ; --tw-backdrop-sepia: ; --tw-contain-size: ; --tw-contain-layout: ; --tw-contain-paint: ; --tw-contain-style: ; box-sizing: border-box; border-width: 0px; border-style: solid; border-color: rgb(227, 227, 227); color: rgb(175, 177, 196); margin: 12px 0px; line-height: 1.75; letter-spacing: 0.02em; caret-color: rgb(175, 177, 196); font-family: system-ui, ui-sans-serif, -apple-system, BlinkMacSystemFont, sans-serif, Inter, NotoSansHans; text-align: start; white-space-collapse: preserve-breaks;&quot; data-spm-anchor-id=&quot;a2ty_o01.29997173.0.i60.45c2c9214bYVBa&quot;&gt;接收用户任务 → 制定执行计划 → 按步骤调度不同 Agent 执行 → 监控进度 → 必要时调整计划 → 最终汇总答案&lt;/span&gt;&lt;/font&gt;" style="rounded=0;whiteSpace=wrap;html=1;" vertex="1" parent="1">
          <mxGeometry x="290" y="1080" width="550" height="180" as="geometry" />
        </mxCell>
        <mxCell id="XT8KvC8Mrg0eWG_kcXal-11" value="task_team" style="rounded=0;whiteSpace=wrap;html=1;" vertex="1" parent="1">
          <mxGeometry x="520" y="710" width="120" height="60" as="geometry" />
        </mxCell>
        <mxCell id="XT8KvC8Mrg0eWG_kcXal-12" value="GroupChat" style="rounded=0;whiteSpace=wrap;html=1;" vertex="1" parent="1">
          <mxGeometry x="520" y="820" width="120" height="60" as="geometry" />
        </mxCell>
      </root>
    </mxGraphModel>
  </diagram>
</mxfile>
